<?xml version="1.0" encoding="UTF-8"?>
<svg width="16" height="16" version="1.1" viewBox="0 0 16 16" xmlns="http://www.w3.org/2000/svg">
 <defs>
  <linearGradient id="linearGradient35491" x2="16" y1="8" y2="8" gradientUnits="userSpaceOnUse">
   <stop stop-color="#c6afe9" stop-opacity=".3" offset="0"/>
   <stop stop-color="#c6afe9" offset=".5"/>
   <stop stop-color="#c6afe9" stop-opacity=".3" offset="1"/>
  </linearGradient>
 </defs>
 <path d="m4.2578 3c-1.5939 0.1523-3.1538 0.51207-4.2578 1.9805v3.0195c1.1137-1.4733 2.1848-2.2354 4.0391-2.2676 0.5941 0 1.2018 0.11152 1.8223 0.33594 0.6337 0.21122 1.2813 0.44886 1.9414 0.71289 0.6733 0.26402 1.3463 0.50996 2.0195 0.73438 0.6865 0.21122 1.3721 0.31641 2.0586 0.31641 0.8052 0 1.5771-0.15145 2.3164-0.45508 0.7525-0.3036 1.3539-0.75649 1.8027-1.377v-3c-0.8261 1.0399-2.2597 2.1142-3.9004 2.1191-0.5809 0-1.1886-0.10519-1.8223-0.31641-0.6205-0.22442-1.2618-0.47035-1.9219-0.73438-0.6601-0.27722-1.3331-0.5212-2.0195-0.73242-0.6865-0.22442-1.3785-0.33594-2.0781-0.33594zm0 7c-1.5939 0.1523-3.1538 0.51207-4.2578 1.9805v3.0195c1.1137-1.4733 2.1848-2.2354 4.0391-2.2676 0.5941 0 1.2018 0.11347 1.8223 0.33789 0.6337 0.21122 1.2813 0.44886 1.9414 0.71289 0.6733 0.26403 1.3463 0.508 2.0195 0.73242 0.6865 0.21122 1.3721 0.31641 2.0586 0.31641 0.8052 0 1.5771-0.15145 2.3164-0.45508 0.7525-0.3036 1.3539-0.75649 1.8027-1.377v-3c-0.8261 1.0399-2.2597 2.1141-3.9004 2.1191-0.5809 0-1.1886-0.10519-1.8223-0.31641-0.6205-0.22443-1.2618-0.46839-1.9219-0.73242-0.6601-0.27722-1.3331-0.52316-2.0195-0.73437-0.6865-0.22442-1.3785-0.33594-2.0781-0.33594z" fill="#5a2ca0"/>
 <path d="m4.2578 2c-1.5939 0.1523-3.1538 0.51207-4.2578 1.9805v3.0195c1.1137-1.4733 2.1848-2.2354 4.0391-2.2676 0.5941 0 1.2018 0.11152 1.8223 0.33594 0.6337 0.21122 1.2813 0.44886 1.9414 0.71289 0.6733 0.26402 1.3463 0.50996 2.0195 0.73438 0.6865 0.21122 1.3721 0.31641 2.0586 0.31641 0.8052 0 1.5771-0.15145 2.3164-0.45508 0.7525-0.3036 1.3539-0.75649 1.8027-1.377v-3c-0.8261 1.0399-2.2597 2.1142-3.9004 2.1191-0.5809 0-1.1886-0.10519-1.8223-0.31641-0.6205-0.22442-1.2618-0.47035-1.9219-0.73438-0.6601-0.27722-1.3331-0.5212-2.0195-0.73242-0.6865-0.22442-1.3785-0.33594-2.0781-0.33594zm0 7c-1.5939 0.1523-3.1538 0.51207-4.2578 1.9805v3.0195c1.1137-1.4733 2.1848-2.2354 4.0391-2.2676 0.5941 0 1.2018 0.11347 1.8223 0.33789 0.6337 0.21122 1.2813 0.44886 1.9414 0.71289 0.6733 0.26403 1.3463 0.508 2.0195 0.73242 0.6865 0.21122 1.3721 0.31641 2.0586 0.31641 0.8052 0 1.5771-0.15145 2.3164-0.45508 0.7525-0.3036 1.3539-0.75649 1.8027-1.377v-3c-0.8261 1.0399-2.2597 2.1141-3.9004 2.1191-0.5809 0-1.1886-0.10519-1.8223-0.31641-0.6205-0.22443-1.2618-0.46839-1.9219-0.73242-0.6601-0.27722-1.3331-0.52315-2.0195-0.73437-0.6865-0.22442-1.3785-0.33594-2.0781-0.33594z" fill="url(#linearGradient35491)"/>
</svg>
