<?xml version="1.0" encoding="UTF-8"?>
<svg width="16" height="16" version="1.1" viewBox="0 0 16 16" xmlns="http://www.w3.org/2000/svg">
 <defs>
  <linearGradient id="linearGradient19134" x2="16" y1="8" y2="8" gradientUnits="userSpaceOnUse">
   <stop stop-color="#2c89a0" offset="0"/>
   <stop stop-color="#4e60b4" offset=".3"/>
   <stop stop-color="#7137c8" offset=".5"/>
   <stop stop-color="#88317a" offset=".7"/>
   <stop stop-color="#a02c2c" offset="1"/>
  </linearGradient>
  <linearGradient id="linearGradient21684" x2="16" y1="8" y2="8" gradientUnits="userSpaceOnUse">
   <stop stop-color="#87cdde" offset="0"/>
   <stop stop-color="#a6bee3" stop-opacity=".3" offset=".3"/>
   <stop stop-color="#c6afe9" stop-opacity=".6" offset=".5"/>
   <stop stop-color="#d29bb8" stop-opacity=".3" offset=".7"/>
   <stop stop-color="#de8787" offset="1"/>
  </linearGradient>
 </defs>
 <path d="m-1e-8 1v3.2891c1.7925 2.7091 3.6538 4.2795 5.582 4.7109-1.9282 0.43148-3.7895 2.0018-5.582 4.7109v3.2891c4.9202-8.1941 11.993-7.4723 16 0v-3.2891c-1.7925-2.7091-3.6538-4.2795-5.582-4.7109 1.9282-0.43148 3.7895-2.0018 5.582-4.7109v-3.2891c-4.9045 8.1976-12.01 7.476-16 0z" fill="url(#linearGradient19134)"/>
 <path d="M 0,0 V 3.2891 C 1.7925,5.9982 3.6538,7.5686 5.582,8 3.6538,8.43148 1.7925,10.0018 0,12.7109 V 16 C 4.9202,7.8059 11.993,8.5277 16,16 V 12.7109 C 14.2075,10.0018 12.3462,8.4314 10.418,8 12.3462,7.56852 14.2075,5.9982 16,3.2891 V 0 C 11.0955,8.1976 3.99,7.476 0,0 Z" fill="url(#linearGradient21684)"/>
 <path d="m10.147 3.8319q0.2493 0 0.46397-0.083679 0.2216-0.08368 0.38088-0.24407 0.1662-0.16736 0.26315-0.4184t0.09695-0.58576-0.09695-0.58576q-0.096952-0.25104-0.26315-0.41142-0.15928-0.16736-0.38088-0.25104-0.21467-0.08368-0.46397-0.08368t-0.46397 0.1046q-0.21468 0.1046-0.40858 0.29288-0.18697 0.18131-0.36702 0.42537-0.17312 0.23709-0.34625 0.50905 0.17313 0.27196 0.34625 0.51602 0.18005 0.23709 0.36702 0.42537 0.1939 0.18131 0.40858 0.28591t0.46397 0.1046zm-4.2935 0q0.2493 0 0.46397-0.1046 0.21468-0.1046 0.40165-0.28591 0.1939-0.18828 0.36703-0.42537 0.18005-0.24406 0.35318-0.51602-0.17313-0.27196-0.35318-0.50905-0.17312-0.24407-0.36703-0.42537-0.18697-0.18828-0.40165-0.29288-0.21467-0.1046-0.46397-0.1046t-0.4709 0.08368q-0.21467 0.083679-0.38088 0.25104-0.1662 0.16039-0.26315 0.41142-0.096953 0.25104-0.096953 0.58576t0.096953 0.58576 0.26315 0.4184q0.1662 0.16039 0.38088 0.24407 0.2216 0.083679 0.4709 0.083679zm4.342-3.6819q0.42935 0 0.81715 0.17433 0.39473 0.16736 0.68558 0.47418 0.29778 0.30682 0.4709 0.73917 0.17312 0.43234 0.17312 0.96231t-0.17312 0.96231-0.4709 0.74614q-0.29085 0.30682-0.68558 0.47418-0.3878 0.16736-0.81715 0.16736-0.3878 0-0.70635-0.11855-0.31163-0.11855-0.57478-0.32077-0.26315-0.2092-0.49168-0.47418-0.2216-0.26498-0.42242-0.55786-0.20083 0.29288-0.42935 0.55786-0.2216 0.26498-0.48475 0.47418-0.26315 0.20223-0.5817 0.32077-0.31855 0.11855-0.69943 0.11855-0.42935 0-0.81715-0.16736t-0.68558-0.47418q-0.29778-0.3138-0.4709-0.74614t-0.17312-0.96231 0.17312-0.96231q0.17313-0.43234 0.4709-0.73917 0.29778-0.30683 0.68558-0.47418 0.3878-0.17433 0.81715-0.17433 0.38088 0 0.69943 0.11855t0.5817 0.32774q0.26315 0.20223 0.48475 0.46721 0.22853 0.26498 0.42935 0.55786 0.20082-0.29288 0.42242-0.55786 0.22853-0.26498 0.49168-0.46721 0.26315-0.2092 0.57478-0.32774 0.31855-0.11855 0.70635-0.11855z" fill="#6532b2" stroke="#e3d7f4" stroke-width=".3"/>
</svg>
